HIERARCHY
ROOT Hips
{
	OFFSET 62.890800 8.863803 43.568401
	CHANNELS 6 Xposition Yposition Zposition Zrotation Xrotation Yrotation
	JOINT Chest
	{
		OFFSET -0.160400 1.630001 7.806301
		CHANNELS 6 Xposition Yposition Zposition Zrotation Xrotation Yrotation
		JOINT Chest2
		{
			OFFSET 0.000000 0.000000 3.197998
			CHANNELS 6 Xposition Yposition Zposition Zrotation Xrotation Yrotation
			JOINT Neck
			{
				OFFSET 0.000000 0.000001 7.440701
				CHANNELS 6 Xposition Yposition Zposition Zrotation Xrotation Yrotation
				JOINT Head
				{
					OFFSET 0.000000 0.000000 2.173901
					CHANNELS 6 Xposition Yposition Zposition Zrotation Xrotation Yrotation
					End Site
					{
						OFFSET 0.000000 0.000001 10.420303
					}
				}
			}
			JOINT LeftCollar
			{
				OFFSET 2.426399 -1.880099 4.759399
				CHANNELS 6 Xposition Yposition Zposition Zrotation Xrotation Yrotation
				JOINT LeftShoulder
				{
					OFFSET 4.420197 0.000000 0.000000
					CHANNELS 6 Xposition Yposition Zposition Zrotation Xrotation Yrotation
					JOINT LeftElbow
					{
						OFFSET 0.000000 -0.000001 -10.347099
						CHANNELS 6 Xposition Yposition Zposition Zrotation Xrotation Yrotation
						JOINT LeftWrist
						{
							OFFSET 0.000000 -0.000001 -12.496300
							CHANNELS 6 Xposition Yposition Zposition Zrotation Xrotation Yrotation
							End Site
							{
								OFFSET 0.000000 0.000000 -2.173901
							}
						}
					}
				}
			}
			JOINT RightCollar
			{
				OFFSET -2.781502 -1.903799 5.072601
				CHANNELS 6 Xposition Yposition Zposition Zrotation Xrotation Yrotation
				JOINT RightShoulder
				{
					OFFSET -4.012100 0.000000 0.000000
					CHANNELS 6 Xposition Yposition Zposition Zrotation Xrotation Yrotation
					JOINT RightElbow
					{
						OFFSET 0.000000 -0.000001 -10.346600
						CHANNELS 6 Xposition Yposition Zposition Zrotation Xrotation Yrotation
						JOINT RightWrist
						{
							OFFSET 0.000000 -0.000001 -12.562599
							CHANNELS 6 Xposition Yposition Zposition Zrotation Xrotation Yrotation
							End Site
							{
								OFFSET 0.000000 0.000000 -2.173901
							}
						}
					}
				}
			}
		}
	}
	JOINT LeftHip
	{
		OFFSET 2.047997 -0.047200 -2.693199
		CHANNELS 6 Xposition Yposition Zposition Zrotation Xrotation Yrotation
		JOINT LeftKnee
		{
			OFFSET 0.000000 -0.000001 -18.824400
			CHANNELS 6 Xposition Yposition Zposition Zrotation Xrotation Yrotation
			JOINT LeftAnkle
			{
				OFFSET 0.000000 -0.000002 -19.078199
				CHANNELS 6 Xposition Yposition Zposition Zrotation Xrotation Yrotation
				End Site
				{
					OFFSET 0.000000 -9.342100 0.000001
				}
			}
		}
	}
	JOINT RightHip
	{
		OFFSET -2.129898 -0.022300 -2.538300
		CHANNELS 6 Xposition Yposition Zposition Zrotation Xrotation Yrotation
		JOINT RightKnee
		{
			OFFSET 0.000000 -0.000001 -18.644600
			CHANNELS 6 Xposition Yposition Zposition Zrotation Xrotation Yrotation
			JOINT RightAnkle
			{
				OFFSET 0.000000 -0.000002 -18.801399
				CHANNELS 6 Xposition Yposition Zposition Zrotation Xrotation Yrotation
				End Site
				{
					OFFSET 0.000000 -8.914600 0.000001
				}
			}
		}
	}
}
MOTION
Frames: 4
Frame Time: 0.041667
-28.675316 35.680500 22.074366 5896.916930 6.247273 357.033140 -0.160400 1.630004 7.806306 -23.902365 1.381842 7.597095 -0.000000 -0.000000 3.198001 2.601222 -9.058322 0.269642 -0.000003 0.000003 7.440706 37.772302 -4.839435 -19.068698 -0.000002 -0.000001 2.173904 3.022858 0.732914 4.366771 2.426408 -1.880100 4.759397 -179.643292 175.565710 -177.197237 4.420189 -0.000002 0.000004 -7.324682 17.170177 -98.354048 -0.000004 0.000001 -10.347093 1410.085451 -107.911921 327.840146 -0.000002 0.000007 -12.496303 66.355233 -1.005281 -7.275333 -2.781499 -1.903796 5.072608 -190.804299 -182.150039 180.550190 -4.012105 0.000002 -0.000010 33.785039 -32.530221 497.548791 0.000004 -0.000001 -10.346600 110.214596 -174.254272 -183.191315 0.000007 -0.000006 -12.562597 -33.661098 539.794167 -948.504108 2.047992 -0.047201 -2.693203 884.171376 14.635296 104.260611 -0.000002 0.000001 -18.824400 -377.049036 192.463434 281.374561 0.000000 -0.000007 -19.078199 -659.048286 -8.382791 63.134813 -2.129898 -0.022299 -2.538298 -445.344617 -41.470050 -43.791799 0.000001 0.000004 -18.644598 3.013809 -191.498574 31.076657 -0.000001 -0.000001 -18.801397 157.489628 184.758830 -224.003772
-28.699814 35.719994 22.067373 5897.101837 6.292299 357.043686 -0.160401 1.629999 7.806302 -24.136249 1.477727 7.585433 0.000009 0.000004 3.198001 2.634014 -9.108917 0.270507 0.000000 -0.000002 7.440703 37.348195 -4.740610 -18.971429 -0.000006 0.000003 2.173902 3.014090 0.679421 4.282578 2.426399 -1.880099 4.759400 -179.519091 175.706534 -177.264214 4.420191 0.000001 0.000004 -7.556788 17.116456 -98.268998 0.000001 0.000002 -10.347102 1409.823281 -107.878706 327.721602 0.000008 0.000005 -12.496294 66.330228 -0.889822 -7.043088 -2.781502 -1.903799 5.072602 -191.035050 -182.094196 180.565299 -4.012095 -0.000002 -0.000007 33.933708 -32.530285 497.467922 -0.000005 0.000001 -10.346598 110.310649 -174.241623 -183.167587 0.000002 -0.000003 -12.562595 -33.793061 539.750836 -948.610659 2.047993 -0.047201 -2.693204 883.971388 14.649028 104.333175 0.000007 0.000003 -18.824408 -377.009421 192.586527 281.473954 0.000002 -0.000004 -19.078201 -658.972007 -8.420886 63.218926 -2.129897 -0.022298 -2.538296 -445.893245 -41.380926 -44.033014 -0.000001 0.000001 -18.644596 3.199222 -191.362353 31.154798 0.000001 -0.000002 -18.801399 157.444562 184.899491 -224.262213
-28.725899 35.763100 22.059978 5897.243031 6.286700 357.032566 -0.160401 1.630001 7.806304 -24.343882 1.639884 7.645875 0.000011 0.000002 3.198000 2.678871 -9.156511 0.272128 -0.000009 0.000000 7.440694 36.912463 -4.674506 -18.887741 -0.000003 -0.000001 2.173894 2.984709 0.616199 4.158367 2.426399 -1.880099 4.759399 -179.408210 175.868970 -177.324757 4.420188 0.000000 0.000003 -7.747708 16.992220 -98.205423 0.000004 -0.000001 -10.347104 1409.186707 -107.932350 327.287502 0.000000 -0.000008 -12.496299 66.046167 -0.681551 -6.676315 -2.781502 -1.903802 5.072604 -191.247523 -182.008258 180.507392 -4.012102 0.000003 -0.000006 33.915465 -32.427518 497.336782 0.000003 0.000002 -10.346593 110.326604 -174.223509 -183.167724 0.000005 -0.000007 -12.562599 -33.896224 539.680130 -948.580715 2.047998 -0.047203 -2.693198 883.818829 14.632978 104.365953 -0.000001 0.000004 -18.824396 -376.977074 192.730644 281.583892 -0.000001 -0.000000 -19.078201 -658.906874 -8.446789 63.300950 -2.129899 -0.022300 -2.538294 -446.326853 -41.331554 -44.182561 -0.000003 0.000003 -18.644594 3.373324 -191.231636 31.237126 0.000006 0.000000 -18.801403 157.415588 185.033130 -224.519082
-28.755203 35.805298 22.053473 5897.437117 6.300716 357.030872 -0.160398 1.630004 7.806305 -24.643256 1.806721 7.715795 0.000001 -0.000000 3.197999 2.750738 -9.110938 0.270624 0.000001 -0.000001 7.440709 36.460380 -4.722009 -18.771617 -0.000004 -0.000000 2.173911 2.926315 0.552612 4.019365 2.426400 -1.880101 4.759403 -179.237196 176.153502 -177.484924 4.420209 0.000000 -0.000003 -7.965192 17.105360 -98.015735 -0.000006 -0.000002 -10.347093 1408.634281 -108.019080 326.740021 0.000001 0.000001 -12.496301 65.687384 -0.590187 -6.498564 -2.781504 -1.903798 5.072609 -191.433441 -181.808639 180.411606 -4.012100 -0.000001 -0.000011 33.607287 -32.232165 497.007840 -0.000001 0.000002 -10.346602 110.170357 -174.152707 -183.232419 0.000001 -0.000008 -12.562594 -33.934965 539.571776 -948.584212 2.047992 -0.047200 -2.693212 883.586275 14.605540 104.409598 0.000001 0.000004 -18.824404 -376.928825 192.802990 281.695798 0.000000 -0.000001 -19.078201 -658.929605 -8.449748 63.359936 -2.129900 -0.022297 -2.538299 -446.801551 -41.281820 -44.349958 0.000000 0.000004 -18.644596 3.568365 -191.136929 31.300032 -0.000004 -0.000001 -18.801405 157.429904 185.131021 -224.702610
